<svg width="278" height="36" viewBox="0 0 278 36" fill="none" xmlns="http://www.w3.org/2000/svg">
<mask id="path-1-outside-1_10_7" maskUnits="userSpaceOnUse" x="-1" y="-1" width="280" height="38" fill="black">
<rect fill="white" x="-1" y="-1" width="280" height="38"/>
<path d="M5.08 5.96C5.08 4.89333 5.34667 3.90667 5.88 3C6.41333 2.06667 7.13333 1.33333 8.04 0.799999C8.94667 0.266665 9.94667 -2.38419e-06 11.04 -2.38419e-06V1.44C9.81333 1.44 8.74667 1.88 7.84 2.76C6.96 3.64 6.52 4.70666 6.52 5.96V12.36C6.52 13.4533 6.24 14.4667 5.68 15.4C5.12 16.3333 4.37333 17.0533 3.44 17.56C4.37333 18.0667 5.12 18.7867 5.68 19.72C6.24 20.6533 6.52 21.68 6.52 22.8V29.2C6.52 30.4267 6.96 31.48 7.84 32.36C8.74667 33.24 9.81333 33.68 11.04 33.68V35.16C9.94667 35.16 8.94667 34.8933 8.04 34.36C7.13333 33.8267 6.41333 33.1067 5.88 32.2C5.34667 31.2667 5.08 30.2667 5.08 29.2V22.8C5.08 21.5733 4.64 20.52 3.76 19.64C2.88 18.76 1.81333 18.32 0.56 18.32V16.84C1.78667 16.84 2.84 16.4 3.72 15.52C4.62667 14.64 5.08 13.5867 5.08 12.36V5.96ZM37.3694 7.16C39.1294 7.16 40.5294 7.42666 41.5694 7.96C42.8227 8.6 43.7827 9.48 44.4494 10.6C45.1427 11.72 45.4894 12.9733 45.4894 14.36C45.4894 15.6667 45.1427 16.88 44.4494 18C43.756 19.0933 42.8094 19.96 41.6094 20.6C43.0494 21.1067 44.2627 21.9867 45.2494 23.24C46.236 24.4933 46.7294 25.9067 46.7294 27.48C46.7294 28.8667 46.3694 30.1467 45.6494 31.32C44.956 32.4667 44.0227 33.3733 42.8494 34.04C42.2627 34.36 41.6094 34.6 40.8894 34.76C40.1694 34.92 39.2094 35 38.0094 35H25.6894V7.16H37.3694ZM64.2588 7.16H65.8188L77.2588 35H75.6588L71.8988 25.8H58.1788L54.3788 35H52.8188L64.2588 7.16ZM58.7788 24.36H71.2988L65.0188 9.08L58.7788 24.36ZM85.0681 24.36C85.0681 26.12 85.5081 27.7467 86.3881 29.24C87.2948 30.7333 88.4948 31.92 89.9881 32.8C91.5081 33.68 93.1481 34.12 94.9081 34.12C96.7215 34.12 98.3615 33.76 99.8281 33.04C101.295 32.32 102.441 31.32 103.268 30.04C104.121 28.76 104.561 27.32 104.588 25.72H106.028C106.028 27.56 105.535 29.24 104.548 30.76C103.588 32.2533 102.255 33.44 100.548 34.32C98.8681 35.1733 96.9881 35.6 94.9081 35.6C92.8815 35.6 91.0015 35.0933 89.2681 34.08C87.5348 33.0667 86.1615 31.7067 85.1481 30C84.1348 28.2667 83.6281 26.3867 83.6281 24.36V17.8C83.6281 15.7733 84.1215 13.9067 85.1081 12.2C86.1215 10.4667 87.4815 9.09333 89.1881 8.08C90.9215 7.06667 92.8015 6.56 94.8281 6.56C96.8815 6.56 98.7481 7 100.428 7.88C102.135 8.73333 103.481 9.92 104.468 11.44C105.455 12.9333 105.948 14.6 105.948 16.44H104.508C104.481 14.84 104.041 13.4 103.188 12.12C102.335 10.84 101.175 9.84 99.7081 9.12C98.2681 8.4 96.6415 8.04 94.8281 8.04C93.0681 8.04 91.4415 8.48 89.9481 9.36C88.4548 10.24 87.2681 11.4267 86.3881 12.92C85.5081 14.4133 85.0681 16.04 85.0681 17.8V24.36ZM115.317 7.16V26L134.198 7.16H136.278L124.638 18.76L136.238 35H134.478L123.598 19.8L115.317 28.08V35H113.838V7.16H115.317ZM173.456 7.16H193.736V14.2H180.736V17.72H191.536V24.4H180.736V27.96H193.736V35H173.456V7.16ZM202.186 35V7.16H203.746L223.186 26.04V7.16H224.666V35H223.186V28.12L203.666 9.08V35H202.186ZM242.395 7.16C244.422 7.16 246.288 7.66666 247.995 8.68C249.728 9.69333 251.102 11.0667 252.115 12.8C253.128 14.5067 253.635 16.3733 253.635 18.4V23.76C253.635 25.7867 253.128 27.6667 252.115 29.4C251.102 31.1067 249.728 32.4667 247.995 33.48C246.288 34.4933 244.422 35 242.395 35H232.115V7.16H242.395ZM252.155 18.4C252.155 16.64 251.715 15.0133 250.835 13.52C249.955 12.0267 248.755 10.84 247.235 9.96C245.742 9.08 244.115 8.64 242.355 8.64H233.595V33.52H242.355C244.115 33.52 245.742 33.08 247.235 32.2C248.755 31.32 249.955 30.1333 250.835 28.64C251.715 27.1467 252.155 25.52 252.155 23.76V18.4ZM267.044 33.68C268.298 33.68 269.364 33.24 270.244 32.36C271.124 31.48 271.564 30.4267 271.564 29.2V22.8C271.564 21.68 271.844 20.6533 272.404 19.72C272.964 18.7867 273.711 18.0667 274.644 17.56C273.711 17.0533 272.964 16.3333 272.404 15.4C271.844 14.4667 271.564 13.4533 271.564 12.36V5.96C271.564 4.70666 271.124 3.64 270.244 2.76C269.364 1.88 268.298 1.44 267.044 1.44V-2.38419e-06C268.138 -2.38419e-06 269.138 0.266665 270.044 0.799999C270.951 1.33333 271.671 2.05333 272.204 2.96C272.738 3.86667 273.004 4.86667 273.004 5.96V12.36C273.004 13.5867 273.444 14.64 274.324 15.52C275.231 16.4 276.298 16.84 277.524 16.84V18.32C276.271 18.32 275.204 18.76 274.324 19.64C273.444 20.52 273.004 21.5733 273.004 22.8V29.2C273.004 30.2667 272.738 31.2667 272.204 32.2C271.671 33.1067 270.951 33.8267 270.044 34.36C269.138 34.8933 268.138 35.16 267.044 35.16V33.68Z"/>
</mask>
<path d="M5.88 3L6.742 3.50706L6.74824 3.49614L5.88 3ZM8.04 0.799999L8.54702 1.66193L8.54702 1.66193L8.04 0.799999ZM11.04 -2.38419e-06H12.04V-1H11.04V-2.38419e-06ZM11.04 1.44V2.44H12.04V1.44H11.04ZM7.84 2.76L7.14353 2.04242L7.13817 2.04761L7.13289 2.05289L7.84 2.76ZM5.68 15.4L6.53749 15.9145L6.53749 15.9145L5.68 15.4ZM3.44 17.56L2.96291 16.6811L1.34397 17.56L2.96291 18.4389L3.44 17.56ZM5.68 19.72L6.53749 19.2055L6.53749 19.2055L5.68 19.72ZM7.84 32.36L7.13289 33.0671L7.13817 33.0724L7.14353 33.0776L7.84 32.36ZM11.04 33.68H12.04V32.68H11.04V33.68ZM11.04 35.16V36.16H12.04V35.16H11.04ZM8.04 34.36L8.54702 33.4981L8.54702 33.4981L8.04 34.36ZM5.88 32.2L5.01169 32.6962L5.01807 32.707L5.88 32.2ZM3.76 19.64L3.05289 20.3471L3.05289 20.3471L3.76 19.64ZM0.56 18.32H-0.44V19.32H0.56V18.32ZM0.56 16.84V15.84H-0.44V16.84H0.56ZM3.72 15.52L3.02353 14.8024L3.01817 14.8076L3.01289 14.8129L3.72 15.52ZM6.08 5.96C6.08 5.06899 6.30033 4.25776 6.74193 3.50702L5.01807 2.49298C4.39301 3.55558 4.08 4.71767 4.08 5.96H6.08ZM6.74824 3.49614C7.19709 2.71066 7.79399 2.10489 8.54702 1.66193L7.53298 -0.0619353C6.47267 0.561774 5.62958 1.42267 5.01176 2.50386L6.74824 3.49614ZM8.54702 1.66193C9.29381 1.22265 10.1176 0.999998 11.04 0.999998V-1C9.77571 -1 8.59953 -0.689317 7.53298 -0.0619344L8.54702 1.66193ZM10.04 -2.38419e-06V1.44H12.04V-2.38419e-06H10.04ZM11.04 0.439998C9.54472 0.439998 8.23056 0.987355 7.14353 2.04242L8.53648 3.47758C9.26278 2.77264 10.0819 2.44 11.04 2.44V0.439998ZM7.13289 2.05289C6.06387 3.12192 5.52 4.44356 5.52 5.96H7.52C7.52 4.96977 7.85613 4.15808 8.54711 3.4671L7.13289 2.05289ZM5.52 5.96V12.36H7.52V5.96H5.52ZM5.52 12.36C5.52 13.2729 5.28882 14.1083 4.82251 14.8855L6.53749 15.9145C7.19118 14.825 7.52 13.6337 7.52 12.36H5.52ZM4.82251 14.8855C4.35206 15.6696 3.7351 16.262 2.96291 16.6811L3.91709 18.4389C5.01156 17.8447 5.88794 16.9971 6.53749 15.9145L4.82251 14.8855ZM2.96291 18.4389C3.7351 18.858 4.35206 19.4504 4.82251 20.2345L6.53749 19.2055C5.88794 18.1229 5.01156 17.2753 3.91709 16.6811L2.96291 18.4389ZM4.82251 20.2345C5.28646 21.0078 5.52 21.8557 5.52 22.8H7.52C7.52 21.5043 7.19354 20.2989 6.53749 19.2055L4.82251 20.2345ZM5.52 22.8V29.2H7.52V22.8H5.52ZM5.52 29.2C5.52 30.6962 6.06842 32.0026 7.13289 33.0671L8.54711 31.6529C7.85158 30.9574 7.52 30.1571 7.52 29.2H5.52ZM7.14353 33.0776C8.23056 34.1326 9.54472 34.68 11.04 34.68V32.68C10.0819 32.68 9.26278 32.3474 8.53648 31.6424L7.14353 33.0776ZM10.04 33.68V35.16H12.04V33.68H10.04ZM11.04 34.16C10.1176 34.16 9.29381 33.9374 8.54702 33.4981L7.53298 35.2219C8.59953 35.8493 9.77571 36.16 11.04 36.16V34.16ZM8.54702 33.4981C7.78691 33.0509 7.18906 32.4531 6.74193 31.693L5.01807 32.707C5.63761 33.7602 6.47976 34.6024 7.53298 35.2219L8.54702 33.4981ZM6.74824 31.7039C6.30055 30.9204 6.08 30.0912 6.08 29.2H4.08C4.08 30.4421 4.39279 31.6129 5.01176 32.6961L6.74824 31.7039ZM6.08 29.2V22.8H4.08V29.2H6.08ZM6.08 22.8C6.08 21.3038 5.53158 19.9974 4.46711 18.9329L3.05289 20.3471C3.74842 21.0426 4.08 21.8428 4.08 22.8H6.08ZM4.46711 18.9329C3.39808 17.8639 2.07643 17.32 0.56 17.32V19.32C1.55023 19.32 2.36192 19.6561 3.05289 20.3471L4.46711 18.9329ZM1.56 18.32V16.84H-0.44V18.32H1.56ZM0.56 17.84C2.05618 17.84 3.36263 17.2916 4.42711 16.2271L3.01289 14.8129C2.31737 15.5084 1.51715 15.84 0.56 15.84V17.84ZM4.41648 16.2376C5.51062 15.1756 6.08 13.866 6.08 12.36H4.08C4.08 13.3073 3.74271 14.1044 3.02353 14.8024L4.41648 16.2376ZM6.08 12.36V5.96H4.08V12.36H6.08ZM41.5694 7.96L41.1131 8.84982L41.1146 8.8506L41.5694 7.96ZM44.4494 10.6L43.5901 11.1115L43.5945 11.119L43.5991 11.1264L44.4494 10.6ZM44.4494 18L45.2939 18.5356L45.2996 18.5264L44.4494 18ZM41.6094 20.6L41.1388 19.7176L39.1314 20.7882L41.2775 21.5433L41.6094 20.6ZM45.2494 23.24L44.4636 23.8586L44.4636 23.8586L45.2494 23.24ZM45.6494 31.32L44.797 30.797L44.7936 30.8026L45.6494 31.32ZM42.8494 34.04L43.3282 34.9179L43.3358 34.9137L43.3434 34.9095L42.8494 34.04ZM25.6894 35H24.6894V36H25.6894V35ZM25.6894 7.16V6.16H24.6894V7.16H25.6894ZM37.3694 8.16C39.0442 8.16 40.2677 8.4163 41.1131 8.84982L42.0257 7.07018C40.7911 6.43703 39.2146 6.16 37.3694 6.16V8.16ZM41.1146 8.8506C42.214 9.41199 43.0275 10.1664 43.5901 11.1115L45.3087 10.0885C44.5379 8.79361 43.4314 7.78801 42.0242 7.06939L41.1146 8.8506ZM43.5991 11.1264C44.1893 12.0797 44.4894 13.149 44.4894 14.36H46.4894C46.4894 12.7976 46.0961 11.3603 45.2996 10.0736L43.5991 11.1264ZM44.4894 14.36C44.4894 15.4791 44.1954 16.5104 43.5991 17.4736L45.2996 18.5264C46.09 17.2496 46.4894 15.8542 46.4894 14.36H44.4894ZM43.6049 17.4645C43.0088 18.4043 42.1943 19.1547 41.1388 19.7176L42.08 21.4824C43.4245 20.7653 44.5032 19.7823 45.2939 18.5355L43.6049 17.4645ZM41.2775 21.5433C42.5302 21.9841 43.5888 22.7473 44.4636 23.8586L46.0351 22.6214C44.9366 21.226 43.5686 20.2293 41.9413 19.6567L41.2775 21.5433ZM44.4636 23.8586C45.3136 24.9382 45.7294 26.1344 45.7294 27.48H47.7294C47.7294 25.6789 47.1585 24.0484 46.0351 22.6214L44.4636 23.8586ZM45.7294 27.48C45.7294 28.6835 45.4197 29.7822 44.7971 30.797L46.5017 31.843C47.319 30.5111 47.7294 29.0499 47.7294 27.48H45.7294ZM44.7936 30.8026C44.1895 31.8018 43.3811 32.5877 42.3554 33.1705L43.3434 34.9095C44.6643 34.1589 45.7226 33.1315 46.5051 31.8374L44.7936 30.8026ZM42.3705 33.1621C41.8742 33.4329 41.3103 33.6421 40.6724 33.7838L41.1063 35.7362C41.9084 35.5579 42.6513 35.2871 43.3282 34.9179L42.3705 33.1621ZM40.6724 33.7838C40.0539 33.9213 39.1757 34 38.0094 34V36C39.243 36 40.2849 35.9187 41.1063 35.7362L40.6724 33.7838ZM38.0094 34H25.6894V36H38.0094V34ZM26.6894 35V7.16H24.6894V35H26.6894ZM25.6894 8.16H37.3694V6.16H25.6894V8.16ZM64.2588 7.16V6.16H63.5885L63.3338 6.77992L64.2588 7.16ZM65.8188 7.16L66.7437 6.77992L66.489 6.16H65.8188V7.16ZM77.2588 35V36H78.7508L78.1837 34.6199L77.2588 35ZM75.6588 35L74.7331 35.3783L74.9872 36H75.6588V35ZM71.8988 25.8L72.8244 25.4217L72.5703 24.8H71.8988V25.8ZM58.1788 25.8V24.8H57.5098L57.2545 25.4182L58.1788 25.8ZM54.3788 35V36H55.0477L55.303 35.3818L54.3788 35ZM52.8188 35L51.8938 34.6199L51.3267 36H52.8188V35ZM58.7788 24.36L57.853 23.9819L57.2902 25.36H58.7788V24.36ZM71.2988 24.36V25.36H72.7909L72.2237 23.9799L71.2988 24.36ZM65.0188 9.08L65.9437 8.69986L65.0158 6.4422L64.093 8.70193L65.0188 9.08ZM64.2588 8.16H65.8188V6.16H64.2588V8.16ZM64.8938 7.54008L76.3338 35.3801L78.1837 34.6199L66.7437 6.77992L64.8938 7.54008ZM77.2588 34H75.6588V36H77.2588V34ZM76.5844 34.6217L72.8244 25.4217L70.9731 26.1783L74.7331 35.3783L76.5844 34.6217ZM71.8988 24.8H58.1788V26.8H71.8988V24.8ZM57.2545 25.4182L53.4545 34.6182L55.303 35.3818L59.103 26.1818L57.2545 25.4182ZM54.3788 34H52.8188V36H54.3788V34ZM53.7437 35.3801L65.1837 7.54008L63.3338 6.77992L51.8938 34.6199L53.7437 35.3801ZM58.7788 25.36H71.2988V23.36H58.7788V25.36ZM72.2237 23.9799L65.9437 8.69986L64.0938 9.46014L70.3738 24.7401L72.2237 23.9799ZM64.093 8.70193L57.853 23.9819L59.7045 24.7381L65.9445 9.45807L64.093 8.70193ZM86.3881 29.24L85.5265 29.7477L85.5333 29.759L86.3881 29.24ZM89.9881 32.8L89.4804 33.6616L89.4871 33.6654L89.9881 32.8ZM99.8281 33.04L99.3875 32.1423L99.3875 32.1423L99.8281 33.04ZM103.268 30.04L102.436 29.4853L102.432 29.4914L102.428 29.4975L103.268 30.04ZM104.588 25.72V24.72H103.605L103.588 25.7033L104.588 25.72ZM106.028 25.72H107.028V24.72H106.028V25.72ZM104.548 30.76L103.709 30.2155L103.707 30.2192L104.548 30.76ZM100.548 34.32L101.001 35.2116L101.006 35.2088L100.548 34.32ZM85.1481 30L84.2848 30.5047L84.2883 30.5105L85.1481 30ZM85.1081 12.2L84.2448 11.6953L84.2424 11.6995L85.1081 12.2ZM89.1881 8.08L88.6834 7.21668L88.6776 7.22014L89.1881 8.08ZM100.428 7.88L99.9641 8.76583L99.9725 8.77021L99.9809 8.77443L100.428 7.88ZM104.468 11.44L103.629 11.9845L103.634 11.9913L104.468 11.44ZM105.948 16.44V17.44H106.948V16.44H105.948ZM104.508 16.44L103.508 16.4567L103.525 17.44H104.508V16.44ZM99.7081 9.12L99.2609 10.0145L99.2675 10.0177L99.7081 9.12ZM89.9481 9.36L90.4558 10.2215L90.4558 10.2215L89.9481 9.36ZM86.3881 12.92L85.5266 12.4123L85.5266 12.4123L86.3881 12.92ZM84.0681 24.36C84.0681 26.2957 84.5545 28.0981 85.5266 29.7477L87.2497 28.7323C86.4618 27.3953 86.0681 25.9443 86.0681 24.36H84.0681ZM85.5333 29.759C86.525 31.3922 87.8437 32.6971 89.4804 33.6615L90.4958 31.9385C89.1458 31.1429 88.0646 30.0744 87.2429 28.721L85.5333 29.759ZM89.4871 33.6654C91.1597 34.6338 92.9726 35.12 94.9081 35.12V33.12C93.3237 33.12 91.8566 32.7262 90.4892 31.9346L89.4871 33.6654ZM94.9081 35.12C96.8573 35.12 98.6505 34.7321 100.269 33.9377L99.3875 32.1423C98.0724 32.7879 96.5857 33.12 94.9081 33.12V35.12ZM100.269 33.9377C101.886 33.1437 103.176 32.026 104.108 30.5825L102.428 29.4975C101.707 30.614 100.703 31.4963 99.3875 32.1423L100.269 33.9377ZM104.1 30.5947C105.064 29.1485 105.558 27.5203 105.588 25.7367L103.588 25.7033C103.565 27.1197 103.179 28.3715 102.436 29.4853L104.1 30.5947ZM104.588 26.72H106.028V24.72H104.588V26.72ZM105.028 25.72C105.028 27.3699 104.589 28.8603 103.709 30.2155L105.387 31.3045C106.48 29.6197 107.028 27.7501 107.028 25.72H105.028ZM103.707 30.2192C102.85 31.553 101.654 32.6248 100.09 33.4312L101.006 35.2088C102.856 34.2552 104.327 32.9536 105.389 31.3008L103.707 30.2192ZM100.095 33.4284C98.5697 34.2033 96.8473 34.6 94.9081 34.6V36.6C97.1289 36.6 99.1666 36.1433 101.001 35.2116L100.095 33.4284ZM94.9081 34.6C93.0571 34.6 91.3515 34.1396 89.7728 33.2167L88.7634 34.9433C90.6514 36.047 92.7058 36.6 94.9081 36.6V34.6ZM89.7728 33.2167C88.1841 32.2879 86.9337 31.0486 86.008 29.4895L84.2883 30.5105C85.3892 32.3648 86.8855 33.8454 88.7634 34.9433L89.7728 33.2167ZM86.0114 29.4953C85.0885 27.9166 84.6281 26.211 84.6281 24.36H82.6281C82.6281 26.5623 83.1811 28.6167 84.2848 30.5047L86.0114 29.4953ZM84.6281 24.36V17.8H82.6281V24.36H84.6281ZM84.6281 17.8C84.6281 15.9439 85.0777 14.2506 85.9739 12.7005L84.2424 11.6995C83.1652 13.5627 82.6281 15.6028 82.6281 17.8H84.6281ZM85.9714 12.7047C86.9002 11.116 88.1395 9.86558 89.6987 8.93985L88.6776 7.22014C86.8234 8.32108 85.3427 9.81736 84.2448 11.6953L85.9714 12.7047ZM89.6928 8.9433C91.2715 8.02037 92.9771 7.56 94.8281 7.56V5.56C92.6258 5.56 90.5714 6.11297 88.6834 7.2167L89.6928 8.9433ZM94.8281 7.56C96.7335 7.56 98.4389 7.96692 99.9641 8.76583L100.892 6.99417C99.0573 6.03307 97.0294 5.56 94.8281 5.56V7.56ZM99.9809 8.77443C101.537 9.55247 102.745 10.622 103.629 11.9845L105.307 10.8955C104.218 9.21804 102.733 7.9142 100.875 6.98557L99.9809 8.77443ZM103.634 11.9913C104.509 13.3163 104.948 14.7902 104.948 16.44H106.948C106.948 14.4098 106.4 12.5504 105.302 10.8887L103.634 11.9913ZM105.948 15.44H104.508V17.44H105.948V15.44ZM105.508 16.4233C105.478 14.6397 104.984 13.0115 104.02 11.5653L102.356 12.6747C103.099 13.7885 103.485 15.0403 103.508 16.4567L105.508 16.4233ZM104.02 11.5653C103.063 10.1293 101.764 9.0151 100.149 8.22233L99.2675 10.0177C100.586 10.6649 101.607 11.5507 102.356 12.6747L104.02 11.5653ZM100.155 8.22557C98.5598 7.42781 96.7769 7.04 94.8281 7.04V9.04C96.506 9.04 97.9764 9.37219 99.2609 10.0144L100.155 8.22557ZM94.8281 7.04C92.8925 7.04 91.0901 7.52635 89.4404 8.49846L90.4558 10.2215C91.7928 9.43364 93.2438 9.04 94.8281 9.04V7.04ZM89.4404 8.49846C87.8011 9.46451 86.4926 10.7729 85.5266 12.4123L87.2497 13.4277C88.0436 12.0804 89.1085 11.0155 90.4558 10.2215L89.4404 8.49846ZM85.5266 12.4123C84.5545 14.0619 84.0681 15.8643 84.0681 17.8H86.0681C86.0681 16.2157 86.4618 14.7647 87.2497 13.4277L85.5266 12.4123ZM84.0681 17.8V24.36H86.0681V17.8H84.0681ZM115.317 7.16H116.317V6.16H115.317V7.16ZM115.317 26H114.317V28.4106L116.024 26.7079L115.317 26ZM134.198 7.16V6.16H133.784L133.491 6.45214L134.198 7.16ZM136.278 7.16L136.983 7.86832L138.698 6.16H136.278V7.16ZM124.638 18.76L123.932 18.0517L123.331 18.6507L123.824 19.3412L124.638 18.76ZM136.238 35V36H138.181L137.051 34.4188L136.238 35ZM134.478 35L133.664 35.582L133.964 36H134.478V35ZM123.598 19.8L124.411 19.218L123.724 18.259L122.89 19.0929L123.598 19.8ZM115.317 28.08L114.61 27.3729L114.317 27.6658V28.08H115.317ZM115.317 35V36H116.317V35H115.317ZM113.838 35H112.838V36H113.838V35ZM113.838 7.16V6.16H112.838V7.16H113.838ZM114.317 7.16V26H116.317V7.16H114.317ZM116.024 26.7079L134.904 7.86785L133.491 6.45214L114.611 25.2921L116.024 26.7079ZM134.198 8.16H136.278V6.16H134.198V8.16ZM135.572 6.45168L123.932 18.0517L125.343 19.4683L136.983 7.86832L135.572 6.45168ZM123.824 19.3412L135.424 35.5812L137.051 34.4188L125.451 18.1788L123.824 19.3412ZM136.238 34H134.478V36H136.238V34ZM135.291 34.418L124.411 19.218L122.784 20.382L133.664 35.582L135.291 34.418ZM122.89 19.0929L114.61 27.3729L116.025 28.7871L124.305 20.5071L122.89 19.0929ZM114.317 28.08V35H116.317V28.08H114.317ZM115.317 34H113.838V36H115.317V34ZM114.838 35V7.16H112.838V35H114.838ZM113.838 8.16H115.317V6.16H113.838V8.16ZM173.456 7.16V6.16H172.456V7.16H173.456ZM193.736 7.16H194.736V6.16H193.736V7.16ZM193.736 14.2V15.2H194.736V14.2H193.736ZM180.736 14.2V13.2H179.736V14.2H180.736ZM180.736 17.72H179.736V18.72H180.736V17.72ZM191.536 17.72H192.536V16.72H191.536V17.72ZM191.536 24.4V25.4H192.536V24.4H191.536ZM180.736 24.4V23.4H179.736V24.4H180.736ZM180.736 27.96H179.736V28.96H180.736V27.96ZM193.736 27.96H194.736V26.96H193.736V27.96ZM193.736 35V36H194.736V35H193.736ZM173.456 35H172.456V36H173.456V35ZM173.456 8.16H193.736V6.16H173.456V8.16ZM192.736 7.16V14.2H194.736V7.16H192.736ZM193.736 13.2H180.736V15.2H193.736V13.2ZM179.736 14.2V17.72H181.736V14.2H179.736ZM180.736 18.72H191.536V16.72H180.736V18.72ZM190.536 17.72V24.4H192.536V17.72H190.536ZM191.536 23.4H180.736V25.4H191.536V23.4ZM179.736 24.4V27.96H181.736V24.4H179.736ZM180.736 28.96H193.736V26.96H180.736V28.96ZM192.736 27.96V35H194.736V27.96H192.736ZM193.736 34H173.456V36H193.736V34ZM174.456 35V7.16H172.456V35H174.456ZM202.186 35H201.186V36H202.186V35ZM202.186 7.16V6.16H201.186V7.16H202.186ZM203.746 7.16L204.442 6.44263L204.151 6.16H203.746V7.16ZM223.186 26.04L222.489 26.7574L224.186 28.4052V26.04H223.186ZM223.186 7.16V6.16H222.186V7.16H223.186ZM224.666 7.16H225.666V6.16H224.666V7.16ZM224.666 35V36H225.666V35H224.666ZM223.186 35H222.186V36H223.186V35ZM223.186 28.12H224.186V27.6985L223.884 27.4041L223.186 28.12ZM203.666 9.08L204.364 8.36415L202.666 6.70766V9.08H203.666ZM203.666 35V36H204.666V35H203.666ZM203.186 35V7.16H201.186V35H203.186ZM202.186 8.16H203.746V6.16H202.186V8.16ZM203.049 7.87736L222.489 26.7574L223.882 25.3226L204.442 6.44263L203.049 7.87736ZM224.186 26.04V7.16H222.186V26.04H224.186ZM223.186 8.16H224.666V6.16H223.186V8.16ZM223.666 7.16V35H225.666V7.16H223.666ZM224.666 34H223.186V36H224.666V34ZM224.186 35V28.12H222.186V35H224.186ZM223.884 27.4041L204.364 8.36415L202.967 9.79585L222.487 28.8359L223.884 27.4041ZM202.666 9.08V35H204.666V9.08H202.666ZM203.666 34H202.186V36H203.666V34ZM247.995 8.68L247.484 9.53987L247.49 9.54329L247.995 8.68ZM252.115 12.8L251.252 13.3047L251.255 13.3105L252.115 12.8ZM252.115 29.4L252.975 29.9106L252.978 29.9047L252.115 29.4ZM247.995 33.48L247.49 32.6167L247.484 32.6201L247.995 33.48ZM232.115 35H231.115V36H232.115V35ZM232.115 7.16V6.16H231.115V7.16H232.115ZM250.835 13.52L249.973 14.0277L249.973 14.0277L250.835 13.52ZM247.235 9.96L246.727 10.8216L246.734 10.8254L247.235 9.96ZM233.595 8.64V7.64H232.595V8.64H233.595ZM233.595 33.52H232.595V34.52H233.595V33.52ZM247.235 32.2L246.734 31.3345L246.727 31.3385L247.235 32.2ZM250.835 28.64L249.973 28.1323L249.973 28.1323L250.835 28.64ZM242.395 8.16C244.246 8.16 245.936 8.62026 247.484 9.53985L248.506 7.82014C246.641 6.71307 244.597 6.16 242.395 6.16V8.16ZM247.49 9.54329C249.075 10.4699 250.325 11.7197 251.252 13.3047L252.978 12.2953C251.878 10.4136 250.381 8.91677 248.5 7.8167L247.49 9.54329ZM251.255 13.3105C252.175 14.8593 252.635 16.549 252.635 18.4H254.635C254.635 16.1976 254.082 14.154 252.975 12.2895L251.255 13.3105ZM252.635 18.4V23.76H254.635V18.4H252.635ZM252.635 23.76C252.635 25.611 252.175 27.3166 251.252 28.8953L252.978 29.9047C254.082 28.0167 254.635 25.9623 254.635 23.76H252.635ZM251.255 28.8895C250.329 30.4486 249.079 31.6879 247.49 32.6167L248.5 34.3433C250.378 33.2454 251.874 31.7648 252.975 29.9105L251.255 28.8895ZM247.484 32.6201C245.936 33.5397 244.246 34 242.395 34V36C244.597 36 246.641 35.4469 248.506 34.3399L247.484 32.6201ZM242.395 34H232.115V36H242.395V34ZM233.115 35V7.16H231.115V35H233.115ZM232.115 8.16H242.395V6.16H232.115V8.16ZM253.155 18.4C253.155 16.4643 252.669 14.6619 251.697 13.0123L249.973 14.0277C250.761 15.3647 251.155 16.8157 251.155 18.4H253.155ZM251.697 13.0123C250.728 11.3686 249.403 10.0596 247.736 9.09457L246.734 10.8254C248.107 11.6204 249.182 12.6847 249.973 14.0277L251.697 13.0123ZM247.743 9.09846C246.093 8.12635 244.291 7.64 242.355 7.64V9.64C243.939 9.64 245.39 10.0336 246.727 10.8215L247.743 9.09846ZM242.355 7.64H233.595V9.64H242.355V7.64ZM232.595 8.64V33.52H234.595V8.64H232.595ZM233.595 34.52H242.355V32.52H233.595V34.52ZM242.355 34.52C244.291 34.52 246.093 34.0336 247.743 33.0615L246.727 31.3385C245.39 32.1264 243.939 32.52 242.355 32.52V34.52ZM247.736 33.0654C249.403 32.1004 250.728 30.7914 251.697 29.1477L249.973 28.1323C249.182 29.4753 248.107 30.5396 246.734 31.3346L247.736 33.0654ZM251.697 29.1477C252.669 27.4981 253.155 25.6957 253.155 23.76H251.155C251.155 25.3443 250.761 26.7953 249.973 28.1323L251.697 29.1477ZM253.155 23.76V18.4H251.155V23.76H253.155ZM267.044 33.68V32.68H266.044V33.68H267.044ZM270.244 32.36L269.537 31.6529L269.537 31.6529L270.244 32.36ZM272.404 19.72L271.547 19.2055L271.547 19.2055L272.404 19.72ZM274.644 17.56L275.121 18.4389L276.74 17.56L275.121 16.6811L274.644 17.56ZM272.404 15.4L271.547 15.9145L271.547 15.9145L272.404 15.4ZM270.244 2.76L269.537 3.4671L269.537 3.4671L270.244 2.76ZM267.044 1.44H266.044V2.44H267.044V1.44ZM267.044 -2.38419e-06V-1H266.044V-2.38419e-06H267.044ZM270.044 0.799999L269.537 1.66193L269.537 1.66193L270.044 0.799999ZM272.204 2.96L273.066 2.45298L273.066 2.45298L272.204 2.96ZM274.324 15.52L273.617 16.2271L273.623 16.2324L273.628 16.2376L274.324 15.52ZM277.524 16.84H278.524V15.84H277.524V16.84ZM277.524 18.32V19.32H278.524V18.32H277.524ZM274.324 19.64L275.031 20.3471L275.031 20.3471L274.324 19.64ZM272.204 32.2L273.066 32.7071L273.073 32.6961L272.204 32.2ZM270.044 34.36L270.551 35.2219L270.044 34.36ZM267.044 35.16H266.044V36.16H267.044V35.16ZM267.044 34.68C268.561 34.68 269.882 34.1361 270.951 33.0671L269.537 31.6529C268.846 32.3439 268.035 32.68 267.044 32.68V34.68ZM270.951 33.0671C272.016 32.0026 272.564 30.6962 272.564 29.2H270.564C270.564 30.1571 270.233 30.9574 269.537 31.6529L270.951 33.0671ZM272.564 29.2V22.8H270.564V29.2H272.564ZM272.564 22.8C272.564 21.8557 272.798 21.0078 273.262 20.2345L271.547 19.2055C270.891 20.2989 270.564 21.5043 270.564 22.8H272.564ZM273.262 20.2345C273.732 19.4504 274.349 18.858 275.121 18.4389L274.167 16.6811C273.073 17.2753 272.196 18.1229 271.547 19.2055L273.262 20.2345ZM275.121 16.6811C274.349 16.262 273.732 15.6696 273.262 14.8855L271.547 15.9145C272.196 16.9971 273.073 17.8447 274.167 18.4389L275.121 16.6811ZM273.262 14.8855C272.796 14.1083 272.564 13.2729 272.564 12.36H270.564C270.564 13.6337 270.893 14.825 271.547 15.9145L273.262 14.8855ZM272.564 12.36V5.96H270.564V12.36H272.564ZM272.564 5.96C272.564 4.44356 272.021 3.12192 270.951 2.05289L269.537 3.4671C270.228 4.15808 270.564 4.96977 270.564 5.96H272.564ZM270.951 2.05289C269.882 0.983864 268.561 0.439998 267.044 0.439998V2.44C268.035 2.44 268.846 2.77613 269.537 3.4671L270.951 2.05289ZM268.044 1.44V-2.38419e-06H266.044V1.44H268.044ZM267.044 0.999998C267.967 0.999998 268.791 1.22265 269.537 1.66193L270.551 -0.0619346C269.485 -0.689317 268.309 -1 267.044 -1V0.999998ZM269.537 1.66193C270.297 2.10906 270.895 2.70691 271.342 3.46702L273.066 2.45298C272.447 1.39976 271.605 0.557606 270.551 -0.0619353L269.537 1.66193ZM271.342 3.46702C271.782 4.2138 272.004 5.03762 272.004 5.96H274.004C274.004 4.69571 273.694 3.51953 273.066 2.45298L271.342 3.46702ZM272.004 5.96V12.36H274.004V5.96H272.004ZM272.004 12.36C272.004 13.8562 272.553 15.1626 273.617 16.2271L275.031 14.8129C274.336 14.1174 274.004 13.3171 274.004 12.36H272.004ZM273.628 16.2376C274.715 17.2926 276.029 17.84 277.524 17.84V15.84C276.566 15.84 275.747 15.5074 275.021 14.8024L273.628 16.2376ZM276.524 16.84V18.32H278.524V16.84H276.524ZM277.524 17.32C276.008 17.32 274.686 17.8639 273.617 18.9329L275.031 20.3471C275.722 19.6561 276.534 19.32 277.524 19.32V17.32ZM273.617 18.9329C272.553 19.9974 272.004 21.3038 272.004 22.8H274.004C274.004 21.8428 274.336 21.0426 275.031 20.3471L273.617 18.9329ZM272.004 22.8V29.2H274.004V22.8H272.004ZM272.004 29.2C272.004 30.0912 271.784 30.9204 271.336 31.7039L273.073 32.6961C273.692 31.6129 274.004 30.4421 274.004 29.2H272.004ZM271.342 31.693C270.895 32.4531 270.297 33.0509 269.537 33.4981L270.551 35.2219C271.605 34.6024 272.447 33.7602 273.066 32.707L271.342 31.693ZM269.537 33.4981C268.791 33.9374 267.967 34.16 267.044 34.16V36.16C268.309 36.16 269.485 35.8493 270.551 35.2219L269.537 33.4981ZM268.044 35.16V33.68H266.044V35.16H268.044Z" fill="white" mask="url(#path-1-outside-1_10_7)"/>
</svg>
